# xmcd
#
# Track frame offsets:
# 150
# 14271
# 33492
# 46824
# 62299
# 75021
# 90862
# 106225
# 121751
# 139556
# 155525
#
# Disc length: 2278 seconds
#
#
# Revision: 0
# Processed by: cddbd v1.5.2PL0 Copyright (c) Steve Scherf et al.
# Submitted via: FreeRIP 2.945 
#
DISCID=6a08e40b
DTITLE=Ανδριάνα Μπάμπαλη - Δες καθαρά
DYEAR=2007
DGENRE=
TTITLE0=Έτσι απλά
TTITLE1=Τι πιο απλό(Συμμετέχει ο Γιάννης Νάστης(xaxaker))
TTITLE2=Δες καθαρά(Fes a la mer)
TTITLE3=Το κατάλαβα
TTITLE4=Το γαλάζιο καλοκαίρι
TTITLE5=Όλα μου λένε
TTITLE6=Λάθος που αρχίζει απο π
TTITLE7=Τα μηνύματα
TTITLE8=Τα δάκρυα
TTITLE9=Πάρκινγ
TTITLE10=Πεθαμένα αστέρια
EXTD=
EXTT0=
EXTT1=
EXTT2=
EXTT3=
EXTT4=
EXTT5=
EXTT6=
EXTT7=
EXTT8=
EXTT9=
EXTT10=
PLAYORDER=
